# xmcd
#
# Track frame offsets:
#	150
#	25425
#	44025
#	59475
#	89852
#	105419
#	123368
#	140754
#	155079
#	179491
#	195141
#	216811
#	233552
#	248326
#	263814
#	282206
#	302652
#	319150
#
# Disc length: 4481 seconds
#
# Revision: 0
# Processed by: cddbd v1.5.1PL0 Copyright (c) Steve Scherf et al.
# Submitted via: audiograbber 1.83.01
#
DISCID=06117f12
DTITLE=то дглотийо тяацоуди еимаи еды мо2 - тяацоудиа тгс табкас
DYEAR=1900
DGENRE=
TTITLE0=дяосопоука
TTITLE1=бцгйе о гкиос йоййимос
TTITLE2=сам пас поуки лоу стом лыяиа
TTITLE3=диаламтоука
TTITLE4=сгйы апамы циаммо лоу
TTITLE5=хягмос лецакос ециме
TTITLE6=ле цекасам лиа ваяауцг
TTITLE7=мувтысе йаи бяадуасе
TTITLE8=тыяа та поукиа
TTITLE9=бастате тоуяйои т' акоца
TTITLE10=тфабекаима
TTITLE11='йеимо т' астеяи то калпяо
TTITLE12=йакотува еимаи та боума
TTITLE13=нупма поуки лоу то пяыи
TTITLE14=окца
TTITLE15=асглоука
TTITLE16=лгтяаима
TTITLE17=м' амастеманы дем л' айоус
EXTD=
EXTT0=
EXTT1=
EXTT2=
EXTT3=
EXTT4=
EXTT5=
EXTT6=
EXTT7=
EXTT8=
EXTT9=
EXTT10=
EXTT11=
EXTT12=
EXTT13=
EXTT14=
EXTT15=
EXTT16=
EXTT17=
PLAYORDER=
